<?xml version="1.0" encoding="utf-8"?>
<!-- Generator: Adobe Illustrator 22.1.0, SVG Export Plug-In . SVG Version: 6.00 Build 0)  -->
<svg version="1.1" id="Layer_1" xmlns="http://www.w3.org/2000/svg" xmlns:xlink="http://www.w3.org/1999/xlink" x="0px" y="0px"
	 viewBox="0 0 606.4 45.7" style="enable-background:new 0 0 606.4 45.7;" xml:space="preserve">
<style type="text/css">
	.st0{fill:#B35C49;}
</style>
<g id="Logo">
	<g>
		<path class="st0" d="M42.8,44.8h-7.6l-0.4-4.9c-3,3.6-7.2,5.8-12.9,5.8C9,45.6,0,36.5,0,24.7C0,12,9.4,3,21.9,3
			c10.1,0,18.7,5.7,20.5,15.4H31.6c-1.7-4.8-5.8-6.1-9.5-6.1c-7,0-11.8,4.9-11.8,12.2c0,6.4,4.6,11.7,11.9,11.7
			c4.8,0,8.4-2.3,10.4-6.3l-11.7-0.1v-8h21.9V44.8z"/>
		<path class="st0" d="M79.2,44.8h-9.8v-1.9c-2.3,1.8-4.9,2.8-8,2.8c-7.4,0-12.5-5.1-12.5-13.4V15.6h9.8v15.2c0,4.2,2.2,6.1,5.4,6.1
			c1.8,0,3.7-1,5.4-2.9V15.6h9.8V44.8z"/>
		<path class="st0" d="M109.3,44.3c-3.8,1.2-6,1.4-8.9,1.4c-7,0-11.7-5.2-11.7-13.1V24H83v-8.4h5.7V5.7h9.8v9.9h9.9V24h-9.9v8.4
			c0,3,1.7,4.4,4.6,4.4c1.4,0,3-0.3,5.2-0.7L109.3,44.3z"/>
		<path class="st0" d="M166,33.4c0,6.8-5.5,11.4-14.6,11.4h-21.4V3.9h20.2c8.9,0,14,4.2,14,10.9c0,3.8-2.1,7.7-5.7,9
			C163.5,24.8,166,29,166,33.4z M140.1,20.5h8.4c3.9,0,6-1.7,6-4.4c0-2.6-2-4-6-4h-8.4V20.5z M150,36.4c4.2,0,6.1-1.9,6.1-4.3
			c0-2.5-2.1-3.8-5.8-3.8h-10.1v8.1H150z"/>
		<path class="st0" d="M200.7,44.8h-9.8v-1.9c-2.3,1.8-4.9,2.8-8,2.8c-7.4,0-12.5-5.1-12.5-13.4V15.6h9.8v15.2
			c0,4.2,2.2,6.1,5.4,6.1c1.8,0,3.7-1,5.4-2.9V15.6h9.8V44.8z"/>
		<path class="st0" d="M238.1,44.8h-9.8v-1.5c-2.2,1.4-4.8,2.2-8,2.2c-7.9,0-14.5-6.6-14.5-15.3c0-8.7,6.6-15.2,14.5-15.2
			c3.3,0,5.8,0.8,8,2.2V2h9.8V44.8z M228.4,34.8v-9.1c-1.9-2-3.9-2.7-6-2.7c-4,0-6.9,3.3-6.9,7.2c0,4.1,3,7.3,6.9,7.3
			C224.5,37.5,226.5,36.9,228.4,34.8z"/>
		<path class="st0" d="M275.5,44.8h-9.8v-1.5c-2.2,1.4-4.8,2.2-8,2.2c-7.9,0-14.5-6.6-14.5-15.3c0-8.7,6.6-15.2,14.5-15.2
			c3.3,0,5.8,0.8,8,2.2V2h9.8V44.8z M265.8,34.8v-9.1c-1.9-2-3.9-2.7-6-2.7c-4,0-6.9,3.3-6.9,7.2c0,4.1,3,7.3,6.9,7.3
			C261.9,37.5,263.9,36.9,265.8,34.8z"/>
		<path class="st0" d="M281.5,5.5c0-3.2,2.5-5.5,5.7-5.5c3.1,0,5.7,2.3,5.7,5.5c0,3.1-2.6,5.5-5.7,5.5C284,11,281.5,8.7,281.5,5.5z
			 M292.2,44.8h-9.8V15.6h9.8V44.8z"/>
		<path class="st0" d="M327.7,33.1H307c0.8,2.6,2.8,4.7,6.6,4.7c2,0,3.6-0.8,4.5-2.1h9.7c-1.4,6-7,9.8-14.3,9.8
			c-9.6,0-16-6.4-16-15.3c0-8.9,6.2-15.2,15.6-15.2c8.4,0,14.9,5.8,14.9,14.6C327.9,30.7,327.9,31.9,327.7,33.1z M306.9,27.3h11.9
			c-0.5-3.2-2.6-4.9-5.8-4.9C309.7,22.5,307.6,24.4,306.9,27.3z"/>
		<path class="st0" d="M339.8,34.8c0.4,2.5,2.5,3.7,5.5,3.7c2.6,0,4.2-0.8,4.2-2c0-1-0.9-1.7-2.8-2l-5.9-1c-5.1-0.8-8.6-3.7-8.6-8.8
			c0-6.1,5.3-9.8,13.1-9.8c6.2,0,13.2,2.4,13.7,10.1h-8.7c-0.2-2.2-2.2-3.3-4.9-3.3c-2.5,0-3.7,1-3.7,2.1c0,1,0.7,1.9,3.1,2.3
			l5.4,0.9c5.5,1,9.2,3.7,9.2,8.9c0,6.7-6.1,9.9-13.7,9.9c-7.6,0-13.8-3.2-14.4-11L339.8,34.8z"/>
		<path class="st0" d="M399.6,12.9v31.9h-10.1V12.9h-13.1V3.9h36.2v9.1H399.6z"/>
		<path class="st0" d="M447.1,28.1v16.7h-9.8V29.7c0-4.2-2.1-6.1-5.4-6.1c-1.7,0-3.6,1-5.3,2.9v18.4h-9.8V2h9.8v15.5
			c2.3-1.8,4.9-2.8,8-2.8C442.1,14.7,447.1,19.8,447.1,28.1z"/>
		<path class="st0" d="M482.1,33.1h-20.8c0.8,2.6,2.8,4.7,6.6,4.7c2,0,3.6-0.8,4.5-2.1h9.7c-1.4,6-7,9.8-14.3,9.8
			c-9.6,0-16-6.4-16-15.3c0-8.9,6.2-15.2,15.6-15.2c8.4,0,14.9,5.8,14.9,14.6C482.3,30.7,482.3,31.9,482.1,33.1z M461.2,27.3h11.9
			c-0.5-3.2-2.6-4.9-5.8-4.9C464,22.5,462,24.4,461.2,27.3z"/>
		<path class="st0" d="M518.6,44.8h-9.8v-1.6c-2.2,1.4-4.8,2.2-8,2.2c-7.9,0-14.5-6.6-14.5-15.2c0-8.7,6.6-15.2,14.5-15.2
			c3.3,0,5.8,0.8,8,2.2v-1.6h9.8V44.8z M508.8,34.7v-9.1c-1.9-2-3.9-2.7-6-2.7c-4,0-6.9,3.3-6.9,7.3c0,4,3,7.2,6.9,7.2
			C504.9,37.4,506.9,36.8,508.8,34.7z"/>
		<path class="st0" d="M548.6,44.3c-3.8,1.2-6,1.4-8.9,1.4c-7,0-11.7-5.2-11.7-13.1V24h-5.7v-8.4h5.7V5.7h9.8v9.9h9.9V24h-9.9v8.4
			c0,3,1.7,4.4,4.6,4.4c1.4,0,3-0.3,5.2-0.7L548.6,44.3z"/>
		<path class="st0" d="M573.4,24.4c-4.8,0.2-7.8,1.4-10.1,3.7v16.7h-9.8V15.6h9.8v3.1c2.6-2.2,5.7-3.6,10.1-3.6V24.4z"/>
		<path class="st0" d="M606.2,33.1h-20.8c0.8,2.6,2.8,4.7,6.6,4.7c2,0,3.6-0.8,4.5-2.1h9.7c-1.4,6-7,9.8-14.3,9.8
			c-9.6,0-16-6.4-16-15.3c0-8.9,6.2-15.2,15.6-15.2c8.4,0,14.9,5.8,14.9,14.6C606.4,30.7,606.4,31.9,606.2,33.1z M585.4,27.3h11.9
			c-0.5-3.2-2.6-4.9-5.8-4.9C588.2,22.5,586.1,24.4,585.4,27.3z"/>
	</g>
</g>
</svg>
